<svg version="1.1" id="layer" xmlns="http://www.w3.org/2000/svg" x="0" y="0" viewBox="0 0 652 652" xml:space="preserve"><style>.st0{fill:#0093cb}.st1{fill:#8dc21f}.st2{fill:#888}</style><path class="st0" d="M41 551.6l-.6 1.2c-1.3 2.6-5.6 8.7-15.2 8.7-10 0-17.9-7.8-17.9-17.7 0-11 9.1-17.5 17.9-17.5 2.4 0 10.8.7 15.2 9.1l.6 1.2h11.6l-1.3-3.1c-5.2-12.8-17-17.3-26.3-17.3-15.7 0-28.4 12.5-28.4 27.8 0 15.5 12.5 27.7 28.4 27.7 11.7 0 20.5-5.6 26.2-16.7l1.7-3.3H41zm37-35.5c-4.1.3-8.2 1.1-11.5 3.9v-2.7H55.8v53.1h10.8v-30.8c0-3.2 1-6.2 2.9-8.6 1.8-2.2 5-3.6 8.9-3.9l2.1-.1v-11.1l-2.5.2zm47.1 1.3v4.9c-6-5.4-13.6-6.2-17-6.2-17.8 0-28.4 14.1-28.4 27.6 0 15.6 12.5 27.8 28.4 27.8 3.4 0 10.8-.8 17-6.2v5.1h10.7v-53.1h-10.7zm-17 8.8c9.7 0 17.4 7.8 17.4 17.7 0 9.9-7.6 17.6-17.4 17.6-10.2 0-17.7-7.3-17.7-17.5 0-11.7 8.9-17.8 17.7-17.8m76.7-26.1v22.2c-6.5-5.6-14.3-6.2-16.9-6.2-17.8 0-28.4 14.1-28.4 27.6 0 15.6 12.5 27.8 28.4 27.8 2.6 0 10.5-.6 16.9-6.2v5.1h10.8v-70.3h-10.8zm-16.9 26.1c9.5 0 17.2 7.9 17.2 17.7 0 9.9-7.5 17.6-17.2 17.6-10.2 0-17.6-7.3-17.6-17.5 0-11.7 8.8-17.8 17.6-17.8m34.6-26.1h10.7v70.4h-10.7z"/><path class="st1" d="M298.9 517.3v-17.2h-10.7v17.2H278v10.1h10.2v43.1h10.7v-43.1h11.7v-10.1z"/><path class="st1" d="M335.8 516.1c-13.3 0-27.6 10.7-27.6 28.1 0 14.8 12.7 27.4 27.6 27.4 15.3 0 27.8-12.4 27.8-27.7 0-15.1-12.7-27.8-27.8-27.8m.1 45.4c-9.4 0-17-7.8-17-17.4 0-12.3 9.9-17.9 17-17.9 6.9 0 17 5.5 17 17.4 0 11.2-8.6 17.9-17 17.9"/><path class="st0" d="M414.7 551.6l-.6 1.2c-1 2-5.2 8.7-15.2 8.7s-17.9-7.8-17.9-17.7c0-11 9.1-17.5 17.9-17.5 6.5 0 12.2 3.4 15.2 9.1l.6 1.2h11.5l-1.2-3.1c-5.1-12.8-17.3-17.3-26.2-17.3-15.7 0-28.4 12.5-28.4 27.8 0 15.5 12.5 27.7 28.4 27.7 11.8 0 20.6-5.6 26.1-16.7l1.6-3.3h-11.8zm37-35.5c-4.1.3-8.2 1.1-11.5 3.9v-2.7h-10.7v53.1h10.7v-30.8c0-3.2 1-6.2 2.9-8.6 1.9-2.2 5-3.6 8.9-3.9l2.1-.1v-11.1l-2.4.2zm47 1.3v4.9c-6-5.4-13.5-6.2-16.8-6.2-17.7 0-28.4 14.1-28.4 27.6 0 15.9 12.2 27.8 28.4 27.8 3.3 0 10.7-.8 16.8-6.2v5.1h10.7v-53.1h-10.7zm-16.8 8.8c9.5 0 17.2 7.9 17.2 17.7 0 9.9-7.6 17.6-17.2 17.6-10.2 0-17.7-7.3-17.7-17.5 0-11.7 8.9-17.8 17.7-17.8m76.5-26.1v22.2c-6.5-5.6-14.2-6.2-16.8-6.2-17.8 0-28.4 14.1-28.4 27.6 0 15.6 12.5 27.8 28.4 27.8 2.6 0 10.5-.6 16.8-6.2v5.1h10.7v-70.3h-10.7zm-16.8 26.1c9.5 0 17.2 7.9 17.2 17.7 0 9.9-7.6 17.6-17.2 17.6-10.3 0-17.7-7.3-17.7-17.5 0-11.7 8.9-17.8 17.7-17.8m34.6-26.1H587v70.4h-10.8zm-317.9 55.3c-2.6 3.2-6.9 6-13 6.1-7.7 0-14.7-5.9-16.2-13.1h44v-4.1c0-5.3-1.4-10.3-4.2-14.8-3.7-6.4-11.9-13.4-23.6-13.5-15.2.3-27.6 12.8-27.6 27.8 0 15.3 12.4 27.7 27.6 27.7 10.8 0 20.5-6.4 25-16.2h-12zm-12.9-29.2c6.2 0 13.5 3.8 16.1 12.1h-32.2c2.4-8.2 9.7-12.1 16.1-12.1m387.3 28.3c-2.5 3.6-7 6.9-13.9 7-7.6 0-14.6-5.9-16.2-13.1h44v-4c0-5.3-1.4-10.2-4.2-14.8-3.7-6.4-11.9-13.4-23.6-13.5-15.2.3-27.5 12.8-27.5 27.8 0 15.3 12.4 27.7 27.7 27.7 11.2 0 21.1-6.9 25.4-17.1h-11.7zM619 526.2c6.2 0 13.5 3.8 16.1 12.1h-32.2c2.4-8.2 9.7-12.1 16.1-12.1"/><path class="st2" d="M198.2 288.1c-5.3 2.8-9.3 3.9-14.9 3.9-14.7 0-22.1-9.9-22.1-19.9 0-10.4 8.3-20.2 22.8-20.2 5.3 0 10 1.2 13.7 3.4v8.7c-4.2-2.4-8.4-4-13.1-4-8.1 0-13.7 4.9-13.7 11.9s5.6 12 13.5 12c4.9 0 8.3-1.6 13.7-4.3v8.5zm37.5 3.4h-28v-39.1h27.6v7.2h-18.1v8.2h17.2v7.1h-17.2v9.4h18.5zm26.1-39.1c7.8 0 12.4 5.4 12.4 11.2 0 4.3-2.2 7.5-6.5 9.6 3.9 2 5.1 6.8 10.4 18.3h-10.4c-4-8.4-5.6-15.9-10.7-15.9h-2.7v15.9h-9.4v-39.1h16.9zm-7.5 16h5c2.6 0 5.2-1.2 5.2-4.5 0-2.9-1.8-4.4-5.4-4.4h-4.8v8.9zm61.6-8.8h-13.8v31.9h-9.4v-31.9h-13.8v-7.2h37zm8-7.2h9.4v39.1h-9.4zm46.2 7.2h-16.7v8.7h16.7v7.1h-16.7v16.1H344v-39.1h26.1zm9.7-7.2h9.4v39.1h-9.4zm48.2 39.1h-28v-39.1h27.6v7.2h-18.1v8.2h17.3v7.1h-17.3v9.4H428zm25.8-39.1c13.8 0 21 8.9 21 19.6 0 11.2-6.9 19.5-22 19.5h-15.7v-39.1h16.7zm-7.3 31.9h6.2c9.5 0 12.3-6.7 12.3-12.4 0-6.7-3.5-12.4-12.5-12.4h-6v24.8z"/><path class="st1" d="M180.3 71.6C70.4 71.6-19 161.1-19 271c0 109.8 89.4 199.2 199.3 199.2 41.5 0 80-12.7 111.9-34.4-27.9-28.6-48.6-64.1-59.4-103.3-14.1 12.1-32.5 19.5-52.6 19.5-44.6 0-81-36.4-81-81 0-44.7 36.4-81 81-81 30.4 0 56.8 16.8 70.7 41.6h124.5c-18.3-91.1-98.7-160-195.1-160"/><path class="st0" d="M460.7 71.6c-41.4 0-79.9 12.7-111.8 34.4 27.9 28.7 48.6 64.2 59.3 103.3 14.2-12.1 32.5-19.4 52.5-19.4 44.7 0 81 36.4 81 81s-36.3 81-81 81c-30.5 0-57.1-17-70.9-42H265.4c18.2 91.2 98.7 160.3 195.2 160.3 110 0 199.4-89.4 199.4-199.2 0-109.9-89.4-199.4-199.3-199.4"/><path class="st2" d="M596 73.2h28.1v4.3h-11.7v29.4h-4.9V77.5H596zm59.4 0h4.5v33.7h-4.8V80.7l-10.4 13h-.8l-10.5-13v26.2h-4.8V73.2h4.5L644.3 87z"/></svg>